<svg width="123" height="60" viewBox="0 0 123 60" fill="none" xmlns="http://www.w3.org/2000/svg">
<path d="M31.2182 10.5L5.78069 10.5" stroke="#34D399" stroke-width="2" stroke-linecap="round" stroke-linejoin="round"/>
<path d="M15.0312 19.5V31.5" stroke="#34D399" stroke-width="2" stroke-linecap="round" stroke-linejoin="round"/>
<path d="M21.9688 19.5V31.5" stroke="#34D399" stroke-width="2" stroke-linecap="round" stroke-linejoin="round"/>
<path d="M28.9057 10.5V39C28.9057 39.3978 28.7839 39.7794 28.567 40.0607C28.3502 40.342 28.0561 40.5 27.7494 40.5H9.24944C8.94278 40.5 8.64868 40.342 8.43184 40.0607C8.215 39.7794 8.09319 39.3978 8.09319 39V10.5" stroke="#34D399" stroke-width="2" stroke-linecap="round" stroke-linejoin="round"/>
<path d="M24.2812 10.5V7.5C24.2812 6.70435 24.0376 5.94129 23.6039 5.37868C23.1703 4.81607 22.5821 4.5 21.9688 4.5H15.0312C14.4179 4.5 13.8297 4.81607 13.3961 5.37868C12.9624 5.94129 12.7188 6.70435 12.7188 7.5V10.5" stroke="#34D399" stroke-width="2" stroke-linecap="round" stroke-linejoin="round"/>
<path d="M58.1667 35.0833C58.172 33.7324 57.8203 32.404 57.1472 31.2327C56.474 30.0614 55.5033 29.0888 54.3333 28.4133C54.3622 28.0817 54.3622 27.7483 54.3333 27.4167C54.3333 25.8917 53.7275 24.4291 52.6492 23.3508C51.5709 22.2725 50.1083 21.6667 48.5833 21.6667H48.2383C47.9192 20.7818 47.3878 19.9887 46.6907 19.357C45.9937 18.7253 45.1523 18.2742 44.2403 18.0434C43.3284 17.8126 42.3737 17.809 41.4601 18.033C40.5465 18.2571 39.7017 18.7018 39 19.3283C38.2983 18.7018 37.4536 18.2571 36.5399 18.033C35.6263 17.809 34.6716 17.8126 33.7597 18.0434C32.8477 18.2742 32.0063 18.7253 31.3093 19.357C30.6123 19.9887 30.0808 20.7818 29.7617 21.6667H29.4167C27.8917 21.6667 26.4291 22.2725 25.3508 23.3508C24.2725 24.4291 23.6667 25.8917 23.6667 27.4167C23.6378 27.7483 23.6378 28.0817 23.6667 28.4133C22.5789 29.0282 21.6579 29.8996 20.9838 30.9517C20.3097 32.0038 19.903 33.2047 19.7991 34.4499C19.6952 35.6951 19.8972 36.9469 20.3875 38.0962C20.8779 39.2455 21.6417 40.2575 22.6125 41.0442C21.9844 42.2157 21.6716 43.5305 21.7051 44.8595C21.7385 46.1884 22.1168 47.4858 22.8031 48.6244C23.4893 49.7629 24.4598 50.7035 25.6192 51.3537C26.7787 52.004 28.0873 52.3415 29.4167 52.3333H29.7617C30.0808 53.2182 30.6123 54.0113 31.3093 54.643C32.0063 55.2747 32.8477 55.7258 33.7597 55.9566C34.6716 56.1874 35.6263 56.191 36.5399 55.9669C37.4536 55.7429 38.2983 55.2982 39 54.6717C39.7017 55.2982 40.5465 55.7429 41.4601 55.9669C42.3737 56.191 43.3284 56.1874 44.2403 55.9566C45.1523 55.7258 45.9937 55.2747 46.6907 54.643C47.3878 54.0113 47.9192 53.2182 48.2383 52.3333H48.5833C49.9046 52.325 51.2012 51.9753 52.3475 51.3183C53.4938 50.6612 54.4508 49.7191 55.1257 48.5833C55.8007 47.4474 56.1706 46.1564 56.1997 44.8355C56.2288 43.5146 55.916 42.2086 55.2917 41.0442C56.1857 40.3284 56.908 39.4214 57.4055 38.3899C57.903 37.3584 58.1631 36.2285 58.1667 35.0833ZM37.0833 30.3875C36.6659 30.1487 36.2301 29.9436 35.78 29.7742C35.2971 29.6115 34.7693 29.6473 34.3128 29.8738C33.8563 30.1002 33.5085 30.4987 33.3458 30.9817C33.1832 31.4646 33.219 31.9923 33.4455 32.4488C33.6719 32.9053 34.0704 33.2532 34.5533 33.4158C35.2911 33.6826 35.9293 34.1692 36.3818 34.8102C36.8342 35.4511 37.0791 36.2155 37.0833 37V39.9708C36.6659 39.7321 36.2301 39.527 35.78 39.3575C35.2971 39.1948 34.7693 39.2307 34.3128 39.4571C33.8563 39.6836 33.5085 40.0821 33.3458 40.565C33.1832 41.0479 33.219 41.5757 33.4455 42.0322C33.6719 42.4887 34.0704 42.8365 34.5533 42.9992C35.2911 43.2659 35.9293 43.7526 36.3818 44.3935C36.8342 45.0345 37.0791 45.7988 37.0833 46.5833V50.4167C37.0833 50.925 36.8814 51.4125 36.522 51.7719C36.1625 52.1314 35.675 52.3333 35.1667 52.3333C34.7959 52.3309 34.4337 52.221 34.1241 52.0169C33.8146 51.8127 33.5708 51.5232 33.4225 51.1833C33.7439 50.9947 34.0513 50.7834 34.3425 50.5508C34.5363 50.3897 34.6965 50.1921 34.8139 49.9691C34.9313 49.7461 35.0037 49.5021 35.0268 49.2512C35.0499 49.0002 35.0234 48.7472 34.9488 48.5065C34.8741 48.2658 34.7528 48.0421 34.5917 47.8483C34.4306 47.6545 34.2329 47.4943 34.0099 47.3769C33.7869 47.2595 33.543 47.1872 33.292 47.164C33.0411 47.1409 32.788 47.1674 32.5473 47.2421C32.3066 47.3167 32.083 47.4381 31.8892 47.5992C31.1971 48.1818 30.3213 48.5009 29.4167 48.5C28.4 48.5 27.425 48.0961 26.7061 47.3772C25.9872 46.6583 25.5833 45.6833 25.5833 44.6667C25.5925 43.9452 25.8051 43.241 26.1967 42.635C26.6268 42.7121 27.063 42.7506 27.5 42.75C28.0083 42.75 28.4958 42.5481 28.8553 42.1886C29.2147 41.8292 29.4167 41.3417 29.4167 40.8333C29.4167 40.325 29.2147 39.8375 28.8553 39.478C28.4958 39.1186 28.0083 38.9167 27.5 38.9167C27.0473 38.9193 26.5983 38.8347 26.1775 38.6675C25.4882 38.4189 24.8845 37.9779 24.4381 37.3968C23.9917 36.8156 23.7212 36.1187 23.6587 35.3886C23.5962 34.6585 23.7442 33.9257 24.0853 33.2771C24.4264 32.6286 24.9463 32.0914 25.5833 31.7292C25.8557 31.9797 26.1509 32.2043 26.465 32.4C26.9073 32.6542 27.4324 32.7222 27.9248 32.5892C28.4172 32.4562 28.8367 32.1331 29.0908 31.6908C29.345 31.2486 29.4131 30.7235 29.2801 30.231C29.1471 29.7386 28.8239 29.3192 28.3817 29.065C28.1119 28.9162 27.8868 28.6977 27.73 28.4325C27.5528 28.1248 27.4726 27.7707 27.5 27.4167C27.5 26.9083 27.7019 26.4208 28.0614 26.0614C28.4208 25.7019 28.9083 25.5 29.4167 25.5C29.5502 25.4814 29.6857 25.4814 29.8192 25.5C29.9206 25.8079 30.0423 26.1089 30.1833 26.4008C30.3086 26.6205 30.476 26.8131 30.676 26.9678C30.876 27.1224 31.1046 27.236 31.3487 27.3019C31.5927 27.3678 31.8474 27.3848 32.0981 27.3519C32.3488 27.3189 32.5904 27.2367 32.8092 27.11C33.2341 26.8543 33.5434 26.4439 33.6721 25.965C33.8007 25.486 33.7388 24.9759 33.4992 24.5417C33.3384 24.2477 33.2528 23.9184 33.25 23.5833C33.25 23.075 33.4519 22.5875 33.8114 22.228C34.1708 21.8686 34.6583 21.6667 35.1667 21.6667C35.675 21.6667 36.1625 21.8686 36.522 22.228C36.8814 22.5875 37.0833 23.075 37.0833 23.5833V30.3875ZM51.8225 38.6675C51.4018 38.8347 50.9527 38.9193 50.5 38.9167C49.9917 38.9167 49.5042 39.1186 49.1447 39.478C48.7853 39.8375 48.5833 40.325 48.5833 40.8333C48.5833 41.3417 48.7853 41.8292 49.1447 42.1886C49.5042 42.5481 49.9917 42.75 50.5 42.75C50.937 42.7506 51.3732 42.7121 51.8033 42.635C52.1949 43.241 52.4075 43.9452 52.4167 44.6667C52.4167 45.6833 52.0128 46.6583 51.2939 47.3772C50.575 48.0961 49.6 48.5 48.5833 48.5C47.6787 48.5009 46.8029 48.1818 46.1108 47.5992C45.7194 47.2738 45.2148 47.1173 44.708 47.164C44.2012 47.2108 43.7337 47.4569 43.4083 47.8483C43.083 48.2397 42.9265 48.7444 42.9732 49.2512C43.0199 49.758 43.2661 50.2255 43.6575 50.5508C43.9487 50.7834 44.2561 50.9947 44.5775 51.1833C44.4292 51.5232 44.1855 51.8127 43.8759 52.0169C43.5663 52.221 43.2042 52.3309 42.8333 52.3333C42.325 52.3333 41.8375 52.1314 41.4781 51.7719C41.1186 51.4125 40.9167 50.925 40.9167 50.4167V46.5833C40.9209 45.7988 41.1658 45.0345 41.6182 44.3935C42.0707 43.7526 42.7089 43.2659 43.4467 42.9992C43.9296 42.8365 44.3281 42.4887 44.5546 42.0322C44.781 41.5757 44.8168 41.0479 44.6542 40.565C44.4915 40.0821 44.1437 39.6836 43.6872 39.4571C43.2307 39.2307 42.7029 39.1948 42.22 39.3575C41.77 39.527 41.3341 39.7321 40.9167 39.9708V37C40.9209 36.2155 41.1658 35.4511 41.6182 34.8102C42.0707 34.1692 42.7089 33.6826 43.4467 33.4158C43.9296 33.2532 44.3281 32.9053 44.5546 32.4488C44.781 31.9923 44.8168 31.4646 44.6542 30.9817C44.4915 30.4987 44.1437 30.1002 43.6872 29.8738C43.2307 29.6473 42.7029 29.6115 42.22 29.7742C41.77 29.9436 41.3341 30.1487 40.9167 30.3875V23.5833C40.9167 23.075 41.1186 22.5875 41.4781 22.228C41.8375 21.8686 42.325 21.6667 42.8333 21.6667C43.3417 21.6667 43.8292 21.8686 44.1886 22.228C44.5481 22.5875 44.75 23.075 44.75 23.5833C44.7473 23.9184 44.6617 24.2477 44.5008 24.5417C44.3733 24.7593 44.29 24.9999 44.2557 25.2498C44.2213 25.4997 44.2367 25.7539 44.3008 25.9978C44.3649 26.2418 44.4765 26.4706 44.6292 26.6714C44.782 26.8721 44.9728 27.0407 45.1908 27.1675C45.4096 27.2942 45.6513 27.3764 45.9019 27.4094C46.1526 27.4423 46.4073 27.4253 46.6513 27.3594C46.8954 27.2935 47.124 27.1799 47.324 27.0253C47.524 26.8706 47.6915 26.678 47.8167 26.4583C47.9601 26.1477 48.0818 25.8275 48.1808 25.5C48.3144 25.4814 48.4498 25.4814 48.5833 25.5C49.0917 25.5 49.5792 25.7019 49.9386 26.0614C50.2981 26.4208 50.5 26.9083 50.5 27.4167C50.4971 27.7924 50.3838 28.159 50.1742 28.4708C50.0174 28.7195 49.7997 28.9241 49.5417 29.065C49.0994 29.3192 48.7763 29.7386 48.6433 30.231C48.5103 30.7235 48.5783 31.2486 48.8325 31.6908C49.0867 32.1331 49.5061 32.4562 49.9986 32.5892C50.491 32.7222 51.0161 32.6542 51.4583 32.4C51.8025 32.2139 52.124 31.9888 52.4167 31.7292C53.0559 32.085 53.5799 32.6162 53.9269 33.2603C54.2739 33.9043 54.4294 34.6342 54.375 35.3637C54.3206 36.0932 54.0586 36.792 53.6199 37.3774C53.1812 37.9628 52.5841 38.4105 51.8992 38.6675H51.8225Z" fill="#52525b"/>
<rect x="49" y="49.75" width="6" height="12.9003" rx="3" transform="rotate(-38.6826 49 49.75)" fill="#52525b"/>
<path d="M63.92 41V23.96H66.608V41H63.92ZM77.5391 41.12C76.3071 41.12 75.1951 40.88 74.2031 40.4C73.2111 39.904 72.3551 39.248 71.6351 38.432C70.9151 37.616 70.3551 36.696 69.9551 35.672C69.5711 34.632 69.3791 33.568 69.3791 32.48C69.3791 31.344 69.5871 30.264 70.0031 29.24C70.4191 28.2 70.9951 27.28 71.7311 26.48C72.4671 25.664 73.3311 25.024 74.3231 24.56C75.3311 24.08 76.4191 23.84 77.5871 23.84C78.8031 23.84 79.9071 24.088 80.8991 24.584C81.9071 25.08 82.7631 25.744 83.4671 26.576C84.1871 27.408 84.7391 28.336 85.1231 29.36C85.5231 30.384 85.7231 31.432 85.7231 32.504C85.7231 33.64 85.5151 34.728 85.0991 35.768C84.6991 36.792 84.1311 37.712 83.3951 38.528C82.6591 39.328 81.7871 39.96 80.7791 40.424C79.7871 40.888 78.7071 41.12 77.5391 41.12ZM77.5631 38.696C78.4271 38.696 79.1951 38.52 79.8671 38.168C80.5391 37.816 81.0991 37.344 81.5471 36.752C82.0111 36.144 82.3631 35.472 82.6031 34.736C82.8431 33.984 82.9631 33.232 82.9631 32.48C82.9631 31.68 82.8351 30.904 82.5791 30.152C82.3391 29.4 81.9791 28.736 81.4991 28.16C81.0191 27.584 80.4431 27.128 79.7711 26.792C79.1151 26.44 78.3791 26.264 77.5631 26.264C76.6991 26.264 75.9311 26.44 75.2591 26.792C74.5871 27.144 74.0191 27.624 73.5551 28.232C73.0911 28.824 72.7311 29.488 72.4751 30.224C72.2351 30.96 72.1151 31.712 72.1151 32.48C72.1151 33.28 72.2431 34.056 72.4991 34.808C72.7551 35.56 73.1151 36.224 73.5791 36.8C74.0591 37.376 74.6351 37.84 75.3071 38.192C75.9791 38.528 76.7311 38.696 77.5631 38.696ZM77.8991 35.072H80.4911L85.6751 41H83.0831L77.8991 35.072Z" fill="#52525b"/>
<path d="M101.851 36.608C101.851 37.52 101.611 38.304 101.131 38.96C100.667 39.616 100.035 40.12 99.2351 40.472C98.4351 40.824 97.5551 41 96.5951 41H88.4591V23.96H97.2431C98.0431 23.96 98.7311 24.176 99.3071 24.608C99.8991 25.024 100.347 25.568 100.651 26.24C100.971 26.896 101.131 27.584 101.131 28.304C101.131 29.136 100.915 29.92 100.483 30.656C100.067 31.376 99.4671 31.912 98.6831 32.264C99.6591 32.552 100.427 33.08 100.987 33.848C101.563 34.6 101.851 35.52 101.851 36.608ZM99.0911 36.104C99.0911 35.624 98.9871 35.192 98.7791 34.808C98.5871 34.408 98.3151 34.088 97.9631 33.848C97.6271 33.592 97.2271 33.464 96.7631 33.464H91.1471V38.672H96.5951C97.0751 38.672 97.4991 38.56 97.8671 38.336C98.2511 38.096 98.5471 37.784 98.7551 37.4C98.9791 37 99.0911 36.568 99.0911 36.104ZM91.1471 26.288V31.304H96.0911C96.5391 31.304 96.9391 31.2 97.2911 30.992C97.6431 30.768 97.9231 30.472 98.1311 30.104C98.3391 29.72 98.4431 29.288 98.4431 28.808C98.4431 28.312 98.3471 27.88 98.1551 27.512C97.9631 27.128 97.6991 26.832 97.3631 26.624C97.0431 26.4 96.6671 26.288 96.2351 26.288H91.1471ZM104.318 41V28.448H106.958V41H104.318ZM104.318 26.384V23.48H106.958V26.384H104.318ZM121.387 41H118.747V33.968C118.747 32.8 118.555 31.944 118.171 31.4C117.803 30.856 117.251 30.584 116.515 30.584C116.003 30.584 115.491 30.712 114.979 30.968C114.483 31.224 114.035 31.576 113.635 32.024C113.235 32.456 112.947 32.96 112.771 33.536V41H110.131V28.448H112.531V30.968C112.851 30.408 113.267 29.928 113.779 29.528C114.307 29.112 114.899 28.792 115.555 28.568C116.211 28.344 116.907 28.232 117.643 28.232C118.395 28.232 119.011 28.368 119.491 28.64C119.987 28.912 120.371 29.288 120.643 29.768C120.931 30.232 121.123 30.776 121.219 31.4C121.331 32.008 121.387 32.656 121.387 33.344V41Z" fill="#34D399"/>
</svg>
